<?xml version="1.0" encoding="UTF-8"?>
<!DOCTYPE svg PUBLIC "-//W3C//DTD SVG 20001102//EN" "http://www.w3.org/TR/2000/CR-SVG-20001102/DTD/svg-20001102.dtd">
<svg width="1901.0" height="864.0" xmlns="http://www.w3.org/2000/svg" version="1.1">
  <style type="text/css">
.node .shape {
fill: #cccccc;
stroke: #000000;
}
.node text {
fill: #000000;
}
.node_target .shape {
fill: #8ecf8c;
}
.node_mutation .shape {
fill: #ff0000;
stroke: #000000;
}
.node_mutation text {
fill: #000000;
}
.node_multilevel_component .shape {
fill: #cccccc;
stroke: #000000;
}
.node_multilevel_component text {
fill: #000000;
}
.node_inhibitor_target .shape {
fill: #cccccc;
stroke: #000000;
}
.node_inhibitor_target text {
fill: #000000;
}
.node_phenotypic_output .shape {
fill: #7FBFFF;
stroke: #000000;
}
.node_phenotypic_output text {
fill: #000000;
}
.node_gene .shape {
fill: #ff9900;
}
.node_mutation_and_inhibitor_target .shape {
fill: #cccccc;
stroke: #000000;
}
.node_gene_multilevel .shape {
fill: #ff9900;
}
.edge {
stroke: #000000;
fill: none;
stroke-width: 1;
}
.edge_POSITIVE {
stroke: #13ed75;
}
.edge_NEGATIVE {
stroke: #c80000;
}
.edge_DUAL {
stroke: #0000c8;
}
.edge_style_positive {
stroke: #13ed75;
fill: none;
stroke-width: 2;
}
.edge_style_negative {
stroke: #ff0000;
fill: none;
stroke-width: 2;
}
text {
  font-family: 'Arial', Arial, sans-serif;
  font-size: 16px;
}
</style>
  <defs>
    <marker id="Marker_POSITIVE" viewBox="-7 -7 12 15" orient="auto" markerHeight="9" markerWidth="9">
      <path stroke="#13ed75" fill="#13ed75" d="M -4 -5 L -2 0 L -4 5 L 2 0 z"/>
    </marker>
  </defs>
  <path class="edge edge_POSITIVE edge_style_positive" marker-end="url(#Marker_POSITIVE)" d="M 654.0 480.0 L 740.0 480.0 L 741.0 480.0"/>
  <defs>
    <marker id="Marker_NEGATIVE_ff0000" viewBox="-7 -7 12 15" orient="auto" markerHeight="9" markerWidth="9">
      <path stroke="#ff0000" fill="#ff0000" d="M -1 -4 L -1 4 L 1 4 L 1 -4 z"/>
    </marker>
  </defs>
  <path class="edge edge_NEGATIVE edge_style_negative" marker-end="url(#Marker_NEGATIVE_ff0000)" d="M 1280.0 484.0 L 1266.0 484.0 L 1266.0 500.0"/>
  <path class="edge edge_NEGATIVE edge_style_negative" marker-end="url(#Marker_NEGATIVE_ff0000)" d="M 1319.0 504.0 L 1319.0 636.0 L 1319.0 650.0"/>
  <path class="edge edge_POSITIVE edge_style_positive" marker-end="url(#Marker_POSITIVE)" d="M 1326.0 470.0 L 1326.0 344.0 L 1232.0 344.0"/>
  <path class="edge edge_POSITIVE edge_style_positive" marker-end="url(#Marker_POSITIVE)" d="M 1364.0 495.0 L 1713.0 495.0 L 1713.0 745.0"/>
  <path class="edge edge_NEGATIVE edge_style_negative" marker-end="url(#Marker_NEGATIVE_ff0000)" d="M 1364.0 486.0 L 1416.0 486.0 L 1416.0 422.0"/>
  <path class="edge edge_POSITIVE edge_style_positive" marker-end="url(#Marker_POSITIVE)" d="M 941.0 158.0 L 941.0 141.0 L 656.0 141.0"/>
  <path class="edge edge_POSITIVE edge_style_positive" marker-end="url(#Marker_POSITIVE)" d="M 1640.0 574.0 L 1639.0 341.0"/>
  <path class="edge edge_POSITIVE edge_style_positive" marker-end="url(#Marker_POSITIVE)" d="M 1641.0 608.0 L 1641.0 617.0 L 1732.0 617.0"/>
  <path class="edge edge_NEGATIVE edge_style_negative" marker-end="url(#Marker_NEGATIVE_ff0000)" d="M 934.0 566.0 L 934.0 593.0"/>
  <path class="edge edge_NEGATIVE edge_style_negative" marker-end="url(#Marker_NEGATIVE_ff0000)" d="M 1814.0 245.0 L 1775.0 245.0"/>
  <path class="edge edge_POSITIVE edge_style_positive" marker-end="url(#Marker_POSITIVE)" d="M 607.0 559.0 L 607.0 548.0 L 757.0 548.0"/>
  <path class="edge edge_POSITIVE edge_style_positive" marker-end="url(#Marker_POSITIVE)" d="M 828.0 475.0 L 981.0 475.0 L 981.0 456.0"/>
  <path class="edge edge_NEGATIVE edge_style_negative" marker-end="url(#Marker_NEGATIVE_ff0000)" d="M 744.0 462.0 L 613.0 462.0 L 613.0 148.0"/>
  <path class="edge edge_POSITIVE edge_style_positive" marker-end="url(#Marker_POSITIVE)" d="M 1595.0 131.0 L 1060.0 131.0 L 656.0 131.0"/>
  <path class="edge edge_POSITIVE edge_style_positive" marker-end="url(#Marker_POSITIVE)" d="M 1155.0 460.0 L 1155.0 380.0 L 1155.0 357.0"/>
  <path class="edge edge_NEGATIVE edge_style_negative" marker-end="url(#Marker_NEGATIVE_ff0000)" d="M 1092.0 480.0 L 895.0 480.0 L 895.0 399.0"/>
  <path class="edge edge_POSITIVE edge_style_positive" marker-end="url(#Marker_POSITIVE)" d="M 1046.0 688.0 L 1046.0 695.0"/>
  <path class="edge edge_POSITIVE edge_style_positive" marker-end="url(#Marker_POSITIVE)" d="M 1688.0 244.0 L 1592.0 244.0 L 1592.0 413.0"/>
  <path class="edge edge_POSITIVE edge_style_positive" marker-end="url(#Marker_POSITIVE)" d="M 1731.0 228.0 L 1731.0 77.0 L 1491.0 77.0"/>
  <path class="edge edge_POSITIVE edge_style_positive" marker-end="url(#Marker_POSITIVE)" d="M 135.0 82.0 L 84.0 82.0 L 84.0 163.0"/>
  <path class="edge edge_POSITIVE edge_style_positive" marker-end="url(#Marker_POSITIVE)" d="M 174.0 99.0 L 174.0 132.0 L 174.0 231.0"/>
  <path class="edge edge_NEGATIVE edge_style_negative" marker-end="url(#Marker_NEGATIVE_ff0000)" d="M 410.0 389.0 L 410.0 281.0 L 410.0 169.0"/>
  <path class="edge edge_NEGATIVE edge_style_negative" marker-end="url(#Marker_NEGATIVE_ff0000)" d="M 389.0 394.0 L 317.0 394.0 L 288.0 394.0"/>
  <path class="edge edge_NEGATIVE edge_style_negative" marker-end="url(#Marker_NEGATIVE_ff0000)" d="M 473.0 398.0 L 601.0 398.0 L 601.0 148.0"/>
  <path class="edge edge_POSITIVE edge_style_positive" marker-end="url(#Marker_POSITIVE)" d="M 448.0 423.0 L 448.0 442.0 L 501.0 442.0"/>
  <path class="edge edge_POSITIVE edge_style_positive" marker-end="url(#Marker_POSITIVE)" d="M 428.0 389.0 L 428.0 108.0 L 1575.0 108.0 L 1575.0 413.0"/>
  <path class="edge edge_POSITIVE edge_style_positive" marker-end="url(#Marker_POSITIVE)" d="M 417.0 423.0 L 417.0 639.0 L 286.0 639.0"/>
  <path class="edge edge_POSITIVE edge_style_positive" marker-end="url(#Marker_POSITIVE)" d="M 429.0 423.0 L 429.0 610.0 L 890.0 610.0"/>
  <path class="edge edge_NEGATIVE edge_style_negative" marker-end="url(#Marker_NEGATIVE_ff0000)" d="M 473.0 406.0 L 1143.0 406.0 L 1388.0 406.0"/>
  <path class="edge edge_NEGATIVE edge_style_negative" marker-end="url(#Marker_NEGATIVE_ff0000)" d="M 1419.0 385.0 L 1419.0 321.0 L 1373.0 321.0"/>
  <path class="edge edge_POSITIVE edge_style_positive" marker-end="url(#Marker_POSITIVE)" d="M 1475.0 401.0 L 1824.0 401.0 L 1824.0 485.0"/>
  <path class="edge edge_POSITIVE edge_style_positive" marker-end="url(#Marker_POSITIVE)" d="M 1424.0 419.0 L 1424.0 521.0 L 1311.0 521.0"/>
  <path class="edge edge_NEGATIVE edge_style_negative" marker-end="url(#Marker_NEGATIVE_ff0000)" d="M 1262.0 669.0 L 1236.0 669.0 L 1196.0 669.0"/>
  <path class="edge edge_POSITIVE edge_style_positive" marker-end="url(#Marker_POSITIVE)" d="M 1140.0 257.0 L 1140.0 354.0 L 1136.0 354.0"/>
  <path class="edge edge_POSITIVE edge_style_positive" marker-end="url(#Marker_POSITIVE)" d="M 1092.0 793.0 L 1136.0 793.0 L 1136.0 824.0"/>
  <path class="edge edge_POSITIVE edge_style_positive" marker-end="url(#Marker_POSITIVE)" d="M 885.0 290.0 L 885.0 300.0 L 885.0 304.0"/>
  <path class="edge edge_POSITIVE edge_style_positive" marker-end="url(#Marker_POSITIVE)" d="M 83.0 347.0 L 83.0 409.0"/>
  <path class="edge edge_POSITIVE edge_style_positive" marker-end="url(#Marker_POSITIVE)" d="M 125.0 335.0 L 398.0 335.0 L 398.0 386.0"/>
  <path class="edge edge_POSITIVE edge_style_positive" marker-end="url(#Marker_POSITIVE)" d="M 545.0 462.0 L 545.0 565.0 L 562.0 565.0"/>
  <path class="edge edge_POSITIVE edge_style_positive" marker-end="url(#Marker_POSITIVE)" d="M 504.0 450.0 L 250.0 450.0 L 250.0 620.0"/>
  <path class="edge edge_POSITIVE edge_style_positive" marker-end="url(#Marker_POSITIVE)" d="M 1472.0 312.0 L 1431.0 312.0 L 1373.0 312.0"/>
  <path class="edge edge_POSITIVE edge_style_positive" marker-end="url(#Marker_POSITIVE)" d="M 1378.0 684.0 L 1378.0 172.0 L 984.0 172.0"/>
  <path class="edge edge_POSITIVE edge_style_positive" marker-end="url(#Marker_POSITIVE)" d="M 1369.0 708.0 L 1181.0 708.0 L 1181.0 824.0"/>
  <path class="edge edge_POSITIVE edge_style_positive" marker-end="url(#Marker_POSITIVE)" d="M 635.0 145.0 L 635.0 170.0 L 635.0 182.0"/>
  <path class="edge edge_POSITIVE edge_style_positive" marker-end="url(#Marker_POSITIVE)" d="M 379.0 577.0 L 476.0 577.0 L 562.0 577.0"/>
  <path class="edge edge_NEGATIVE edge_style_negative" marker-end="url(#Marker_NEGATIVE_ff0000)" d="M 320.0 558.0 L 320.0 228.0 L 1096.0 228.0"/>
  <path class="edge edge_NEGATIVE edge_style_negative" marker-end="url(#Marker_NEGATIVE_ff0000)" d="M 350.0 558.0 L 350.0 524.0 L 1221.0 524.0"/>
  <path class="edge edge_POSITIVE edge_style_positive" marker-end="url(#Marker_POSITIVE)" d="M 341.0 558.0 L 341.0 482.0 L 567.0 482.0"/>
  <path class="edge edge_NEGATIVE edge_style_negative" marker-end="url(#Marker_NEGATIVE_ff0000)" d="M 1474.0 454.0 L 1474.0 335.0 L 1232.0 335.0"/>
  <path class="edge edge_POSITIVE edge_style_positive" marker-end="url(#Marker_POSITIVE)" d="M 500.0 340.0 L 500.0 302.0"/>
  <path class="edge edge_NEGATIVE edge_style_negative" marker-end="url(#Marker_NEGATIVE_ff0000)" d="M 706.0 775.0 L 706.0 791.0 L 851.0 791.0"/>
  <path class="edge edge_POSITIVE edge_style_positive" marker-end="url(#Marker_POSITIVE)" d="M 222.0 366.0 L 222.0 349.0 L 222.0 322.0"/>
  <path class="edge edge_POSITIVE edge_style_positive" marker-end="url(#Marker_POSITIVE)" d="M 201.0 388.0 L 117.0 388.0 L 117.0 350.0"/>
  <path class="edge edge_POSITIVE edge_style_positive" marker-end="url(#Marker_POSITIVE)" d="M 1733.0 481.0 L 1733.0 495.0 L 1759.0 495.0"/>
  <path class="edge edge_NEGATIVE edge_style_negative" marker-end="url(#Marker_NEGATIVE_ff0000)" d="M 1001.0 277.0 L 938.0 277.0 L 938.0 529.0"/>
  <path class="edge edge_NEGATIVE edge_style_negative" marker-end="url(#Marker_NEGATIVE_ff0000)" d="M 1042.0 263.0 L 1042.0 252.0 L 1096.0 252.0"/>
  <path class="edge edge_NEGATIVE edge_style_negative" marker-end="url(#Marker_NEGATIVE_ff0000)" d="M 1085.0 274.0 L 1165.0 274.0 L 1236.0 274.0"/>
  <path class="edge edge_NEGATIVE edge_style_negative" marker-end="url(#Marker_NEGATIVE_ff0000)" d="M 1085.0 263.0 L 1432.0 260.0 L 1432.0 382.0"/>
  <path class="edge edge_NEGATIVE edge_style_negative" marker-end="url(#Marker_NEGATIVE_ff0000)" d="M 1252.0 554.0 L 1267.0 554.0 L 1267.0 540.0"/>
  <path class="edge edge_NEGATIVE edge_style_negative" marker-end="url(#Marker_NEGATIVE_ff0000)" d="M 1252.0 567.0 L 1476.0 567.0 L 1476.0 491.0"/>
  <path class="edge edge_POSITIVE edge_style_positive" marker-end="url(#Marker_POSITIVE)" d="M 1194.0 583.0 L 1194.0 584.0 L 1099.0 584.0"/>
  <path class="edge edge_NEGATIVE edge_style_negative" marker-end="url(#Marker_NEGATIVE_ff0000)" d="M 1204.0 583.0 L 1204.0 639.0 L 498.0 640.0 L 498.0 377.0"/>
  <path class="edge edge_NEGATIVE edge_style_negative" marker-end="url(#Marker_NEGATIVE_ff0000)" d="M 1168.0 571.0 L 881.0 571.0 L 881.0 399.0"/>
  <path class="edge edge_NEGATIVE edge_style_negative" marker-end="url(#Marker_NEGATIVE_ff0000)" d="M 1252.0 573.0 L 1296.0 573.0 L 1296.0 650.0"/>
  <path class="edge edge_NEGATIVE edge_style_negative" marker-end="url(#Marker_NEGATIVE_ff0000)" d="M 1220.0 583.0 L 1220.0 696.0 L 1366.0 696.0"/>
  <path class="edge edge_POSITIVE edge_style_positive" marker-end="url(#Marker_POSITIVE)" d="M 1168.0 555.0 L 1018.0 555.0 L 979.0 555.0"/>
  <path class="edge edge_NEGATIVE edge_style_negative" marker-end="url(#Marker_NEGATIVE_ff0000)" d="M 1252.0 560.0 L 1434.0 560.0 L 1434.0 422.0"/>
  <path class="edge edge_POSITIVE edge_style_positive" marker-end="url(#Marker_POSITIVE)" d="M 1212.0 583.0 L 1212.0 759.0 L 748.0 759.0"/>
  <path class="edge edge_POSITIVE edge_style_positive" marker-end="url(#Marker_POSITIVE)" d="M 360.0 214.0 L 512.0 214.0 L 512.0 262.0"/>
  <path class="edge edge_POSITIVE edge_style_positive" marker-end="url(#Marker_POSITIVE)" d="M 276.0 209.0 L 96.0 209.0 L 96.0 310.0"/>
  <path class="edge edge_POSITIVE edge_style_positive" marker-end="url(#Marker_POSITIVE)" d="M 276.0 221.0 L 225.0 221.0 L 225.0 282.0"/>
  <path class="edge edge_POSITIVE edge_style_positive" marker-end="url(#Marker_POSITIVE)" d="M 331.0 225.0 L 331.0 379.0 L 331.0 555.0"/>
  <path class="edge edge_POSITIVE edge_style_positive" marker-end="url(#Marker_POSITIVE)" d="M 293.0 225.0 L 293.0 738.0 L 1457.0 738.0 L 1457.0 652.0"/>
  <path class="edge edge_POSITIVE edge_style_positive" marker-end="url(#Marker_POSITIVE)" d="M 134.0 249.0 L 109.0 249.0 L 109.0 310.0"/>
  <path class="edge edge_NEGATIVE edge_style_negative" marker-end="url(#Marker_NEGATIVE_ff0000)" d="M 1251.0 503.0 L 1251.0 476.0 L 1179.0 476.0"/>
  <path class="edge edge_POSITIVE edge_style_positive" marker-end="url(#Marker_POSITIVE)" d="M 1258.0 503.0 L 1258.0 402.0 L 1258.0 305.0"/>
  <path class="edge edge_NEGATIVE edge_style_negative" marker-end="url(#Marker_NEGATIVE_ff0000)" d="M 237.0 623.0 L 237.0 407.0 L 386.0 407.0"/>
  <path class="edge edge_NEGATIVE edge_style_negative" marker-end="url(#Marker_NEGATIVE_ff0000)" d="M 199.0 639.0 L 88.0 639.0 L 88.0 449.0"/>
  <path class="edge edge_POSITIVE edge_style_positive" marker-end="url(#Marker_POSITIVE)" d="M 1044.0 732.0 L 1044.0 767.0 L 1044.0 773.0"/>
  <path class="edge edge_NEGATIVE edge_style_negative" marker-end="url(#Marker_NEGATIVE_ff0000)" d="M 1539.0 649.0 L 1539.0 458.0 L 1539.0 453.0"/>
  <path class="edge edge_NEGATIVE edge_style_negative" marker-end="url(#Marker_NEGATIVE_ff0000)" d="M 1109.0 668.0 L 1104.0 668.0 L 1090.0 668.0"/>
  <path class="edge edge_POSITIVE edge_style_positive" marker-end="url(#Marker_POSITIVE)" d="M 702.0 320.0 L 755.0 320.0 L 837.0 320.0"/>
  <path class="edge edge_POSITIVE edge_style_positive" marker-end="url(#Marker_POSITIVE)" d="M 1775.0 445.0 L 1775.0 456.0 L 1775.0 485.0"/>
  <path class="edge edge_POSITIVE edge_style_positive" marker-end="url(#Marker_POSITIVE)" d="M 83.0 200.0 L 83.0 310.0"/>
  <path class="edge edge_POSITIVE edge_style_positive" marker-end="url(#Marker_POSITIVE)" d="M 1133.0 370.0 L 1247.0 370.0 L 1247.0 406.0"/>
  <path class="edge edge_POSITIVE edge_style_positive" marker-end="url(#Marker_POSITIVE)" d="M 662.0 293.0 L 662.0 298.0 L 662.0 303.0"/>
  <path class="edge edge_POSITIVE edge_style_positive" marker-end="url(#Marker_POSITIVE)" d="M 703.0 275.0 L 720.0 275.0 L 724.0 275.0"/>
  <path class="edge edge_POSITIVE edge_style_positive" marker-end="url(#Marker_POSITIVE)" d="M 854.0 379.0 L 817.0 379.0 L 817.0 454.0"/>
  <path class="edge edge_POSITIVE edge_style_positive" marker-end="url(#Marker_POSITIVE)" d="M 1860.0 555.0 L 1860.0 447.0 L 1860.0 266.0"/>
  <path class="edge edge_POSITIVE edge_style_positive" marker-end="url(#Marker_POSITIVE)" d="M 1012.0 585.0 L 853.0 585.0 L 652.0 585.0"/>
  <path class="edge edge_POSITIVE edge_style_positive" marker-end="url(#Marker_POSITIVE)" d="M 1096.0 592.0 L 1413.0 592.0 L 1596.0 592.0"/>
  <path class="edge edge_POSITIVE edge_style_positive" marker-end="url(#Marker_POSITIVE)" d="M 1213.0 426.0 L 1211.0 426.0 L 1211.0 546.0"/>
  <path class="edge edge_POSITIVE edge_style_positive" marker-end="url(#Marker_POSITIVE)" d="M 1238.0 409.0 L 1238.0 285.0 L 1088.0 285.0"/>
  <path class="edge edge_POSITIVE edge_style_positive" marker-end="url(#Marker_POSITIVE)" d="M 1297.0 429.0 L 1318.0 429.0 L 1318.0 467.0"/>
  <path class="edge edge_NEGATIVE edge_style_negative" marker-end="url(#Marker_NEGATIVE_ff0000)" d="M 1845.0 698.0 L 1861.0 698.0 L 1861.0 592.0"/>
  <path class="edge edge_NEGATIVE edge_style_negative" marker-end="url(#Marker_NEGATIVE_ff0000)" d="M 1761.0 696.0 L 1663.0 696.0"/>
  <path class="edge edge_POSITIVE edge_style_positive" marker-end="url(#Marker_POSITIVE)" d="M 1800.0 714.0 L 1800.0 794.0 L 1800.0 824.0"/>
  <path class="edge edge_POSITIVE edge_style_positive" marker-end="url(#Marker_POSITIVE)" d="M 1576.0 696.0 L 1539.0 696.0 L 1539.0 686.0"/>
  <path class="edge edge_POSITIVE edge_style_positive" marker-end="url(#Marker_POSITIVE)" d="M 1183.0 320.0 L 1183.0 299.0 L 1088.0 298.0"/>
  <path class="edge edge_POSITIVE edge_style_positive" marker-end="url(#Marker_POSITIVE)" d="M 1145.0 338.0 L 1014.0 338.0 L 1014.0 357.0"/>
  <path class="edge edge_NEGATIVE edge_style_negative" marker-end="url(#Marker_NEGATIVE_ff0000)" d="M 1805.0 522.0 L 1805.0 592.0 L 1686.0 592.0"/>
  <path class="edge edge_POSITIVE edge_style_positive" marker-end="url(#Marker_POSITIVE)" d="M 200.0 319.0 L 200.0 423.0 L 128.0 423.0"/>
  <path class="edge edge_POSITIVE edge_style_positive" marker-end="url(#Marker_POSITIVE)" d="M 1548.0 539.0 L 1526.0 539.0 L 1526.0 333.0"/>
  <path class="edge edge_NEGATIVE edge_style_negative" marker-end="url(#Marker_NEGATIVE_ff0000)" d="M 1735.0 624.0 L 1587.0 624.0 L 1587.0 557.0"/>
  <path class="edge edge_POSITIVE edge_style_positive" marker-end="url(#Marker_POSITIVE)" d="M 1755.0 641.0 L 1755.0 706.0 L 1755.0 745.0"/>
  <path class="edge edge_POSITIVE edge_style_positive" marker-end="url(#Marker_POSITIVE)" d="M 1799.0 641.0 L 1799.0 656.0 L 1799.0 677.0"/>
  <path class="edge edge_POSITIVE edge_style_positive" marker-end="url(#Marker_POSITIVE)" d="M 1745.0 641.0 L 1745.0 689.0 L 1663.0 689.0"/>
  <path class="edge edge_POSITIVE edge_style_positive" marker-end="url(#Marker_POSITIVE)" d="M 458.0 282.0 L 443.0 282.0 L 443.0 386.0"/>
  <path class="edge edge_POSITIVE edge_style_positive" marker-end="url(#Marker_POSITIVE)" d="M 78.0 446.0 L 78.0 755.0 L 312.0 755.0"/>
  <path class="edge edge_POSITIVE edge_style_positive" marker-end="url(#Marker_POSITIVE)" d="M 41.0 428.0 L 25.0 428.0 L 25.0 52.0 L 1561.0 52.0 L 1561.0 413.0"/>
  <path class="edge edge_NEGATIVE edge_style_negative" marker-end="url(#Marker_NEGATIVE_ff0000)" d="M 1311.0 330.0 L 1311.0 420.0 L 1300.0 420.0"/>
  <path class="edge edge_NEGATIVE edge_style_negative" marker-end="url(#Marker_NEGATIVE_ff0000)" d="M 1334.0 296.0 L 1334.0 201.0 L 707.0 201.0"/>
  <path class="edge edge_NEGATIVE edge_style_negative" marker-end="url(#Marker_NEGATIVE_ff0000)" d="M 1446.0 96.0 L 1446.0 302.0 L 1446.0 382.0"/>
  <path class="edge edge_POSITIVE edge_style_positive" marker-end="url(#Marker_POSITIVE)" d="M 1404.0 78.0 L 225.0 78.0 L 222.0 78.0"/>
  <path class="edge edge_POSITIVE edge_style_positive" marker-end="url(#Marker_POSITIVE)" d="M 1741.0 782.0 L 1741.0 794.0 L 1741.0 824.0"/>
  <path class="edge edge_POSITIVE edge_style_positive" marker-end="url(#Marker_POSITIVE)" d="M 659.0 219.0 L 659.0 243.0 L 659.0 256.0"/>
  <path class="edge edge_POSITIVE edge_style_positive" marker-end="url(#Marker_POSITIVE)" d="M 1638.0 304.0 L 1638.0 172.0 L 1638.0 161.0"/>
  <path class="edge edge_NEGATIVE edge_style_negative" marker-end="url(#Marker_NEGATIVE_ff0000)" d="M 1480.0 633.0 L 1531.0 633.0 L 1732.0 633.0"/>
  <path class="edge edge_NEGATIVE edge_style_negative" marker-end="url(#Marker_NEGATIVE_ff0000)" d="M 1421.0 649.0 L 1421.0 661.0 L 1421.0 681.0"/>
  <path class="edge edge_NEGATIVE edge_style_negative" marker-end="url(#Marker_NEGATIVE_ff0000)" d="M 1007.0 394.0 L 1007.0 415.0 L 1007.0 416.0"/>
  <path class="edge edge_POSITIVE edge_style_positive" marker-end="url(#Marker_POSITIVE)" d="M 1280.0 302.0 L 1280.0 388.0 L 1202.0 388.0 L 1202.0 546.0"/>
  <path class="edge edge_POSITIVE edge_style_positive" marker-end="url(#Marker_POSITIVE)" d="M 1278.0 268.0 L 1278.0 87.0 L 222.0 87.0"/>
  <path class="edge edge_POSITIVE edge_style_positive" marker-end="url(#Marker_POSITIVE)" d="M 811.0 271.0 L 817.0 271.0 L 836.0 271.0"/>
  <path class="edge edge_POSITIVE edge_style_positive" marker-end="url(#Marker_POSITIVE)" d="M 783.0 289.0 L 783.0 351.0 L 1046.0 351.0"/>
  <path class="edge edge_NEGATIVE edge_style_negative" marker-end="url(#Marker_NEGATIVE_ff0000)" d="M 1533.0 433.0 L 1447.0 433.0 L 1447.0 422.0"/>
  <path class="edge edge_NEGATIVE edge_style_negative" marker-end="url(#Marker_NEGATIVE_ff0000)" d="M 1617.0 432.0 L 1675.0 432.0 L 1703.0 432.0"/>
  <path class="edge edge_NEGATIVE edge_style_negative" marker-end="url(#Marker_NEGATIVE_ff0000)" d="M 1585.0 450.0 L 1585.0 459.0 L 1678.0 459.0"/>
  <path class="edge edge_POSITIVE edge_style_positive" marker-end="url(#Marker_POSITIVE)" d="M 888.0 341.0 L 888.0 350.0 L 888.0 359.0"/>
  <path class="edge edge_POSITIVE edge_style_positive" marker-end="url(#Marker_POSITIVE)" d="M 924.0 321.0 L 1094.0 321.0 L 1094.0 336.0"/>
  <path class="edge edge_POSITIVE edge_style_positive" marker-end="url(#Marker_POSITIVE)" d="M 844.0 548.0 L 889.0 548.0"/>
  <path class="edge edge_POSITIVE edge_style_positive" marker-end="url(#Marker_POSITIVE)" d="M 337.0 153.0 L 333.0 153.0 L 333.0 188.0"/>
  <path class="edge edge_POSITIVE edge_style_positive" marker-end="url(#Marker_POSITIVE)" d="M 992.0 419.0 L 992.0 418.0 L 992.0 397.0"/>
  <path class="edge edge_NEGATIVE edge_style_negative" marker-end="url(#Marker_NEGATIVE_ff0000)" d="M 951.0 432.0 L 664.0 432.0 L 664.0 343.0"/>
  <path class="edge edge_NEGATIVE edge_style_negative" marker-end="url(#Marker_NEGATIVE_ff0000)" d="M 964.0 453.0 L 964.0 467.0 L 831.0 467.0"/>
  <path class="edge edge_NEGATIVE edge_style_negative" marker-end="url(#Marker_NEGATIVE_ff0000)" d="M 951.0 422.0 L 911.0 422.0 L 911.0 399.0"/>
  <path class="edge edge_NEGATIVE edge_style_negative" marker-end="url(#Marker_NEGATIVE_ff0000)" d="M 951.0 427.0 L 768.0 427.0 L 768.0 292.0"/>
  <path class="edge edge_NEGATIVE edge_style_negative" marker-end="url(#Marker_NEGATIVE_ff0000)" d="M 964.0 419.0 L 964.0 240.0 L 1096.0 240.0"/>
  <path class="edge edge_POSITIVE edge_style_positive" marker-end="url(#Marker_POSITIVE)" d="M 951.0 442.0 L 834.0 442.0 L 591.0 442.0"/>
  <path class="edge edge_POSITIVE edge_style_positive" marker-end="url(#Marker_POSITIVE)" d="M 1035.0 451.0 L 1309.0 451.0 L 1309.0 467.0"/>
  <path class="edge edge_POSITIVE edge_style_positive" marker-end="url(#Marker_POSITIVE)" d="M 1035.0 442.0 L 1361.0 442.0 L 1530.0 442.0"/>
  <path class="edge edge_NEGATIVE edge_style_negative" marker-end="url(#Marker_NEGATIVE_ff0000)" d="M 1011.0 453.0 L 1011.0 511.0 L 1221.0 511.0"/>
  <path class="edge edge_NEGATIVE edge_style_negative" marker-end="url(#Marker_NEGATIVE_ff0000)" d="M 1035.0 446.0 L 1404.0 446.0 L 1404.0 422.0"/>
  <path class="edge edge_POSITIVE edge_style_positive" marker-end="url(#Marker_POSITIVE)" d="M 978.0 672.0 L 979.0 672.0 L 1000.0 672.0"/>
  <path class="edge edge_POSITIVE edge_style_positive" marker-end="url(#Marker_POSITIVE)" d="M 935.0 630.0 L 935.0 648.0"/>
  <path class="edge edge_NEGATIVE edge_style_negative" marker-end="url(#Marker_NEGATIVE_ff0000)" d="M 893.0 616.0 L 335.0 616.0 L 335.0 595.0"/>
  <path class="edge edge_POSITIVE edge_style_positive" marker-end="url(#Marker_POSITIVE)" d="M 893.0 603.0 L 798.0 603.0 L 798.0 568.0"/>
  <path class="edge edge_POSITIVE edge_style_positive" marker-end="url(#Marker_POSITIVE)" d="M 938.0 790.0 L 1005.0 791.0"/>
  <path class="edge edge_NEGATIVE edge_style_negative" marker-end="url(#Marker_NEGATIVE_ff0000)" d="M 399.0 757.0 L 658.0 757.0"/>
  <g id="MAP3K8" class="node">
    <ellipse id="MAP3K8_shape" class="shape" cx="612.0" cy="482.0" rx="40.0" ry="15.0"/>
    <text  id="MAP3K8_text" x="612" y="485" text-anchor="middle">MAP3K8</text>
  </g>
  <g id="RSK_f" class="node">
    <ellipse id="RSK_f_shape" class="shape" cx="1322.0" cy="487.0" rx="40.0" ry="15.0"/>
    <text  id="RSK_f_text" x="1322" y="490" text-anchor="middle">RSK_f</text>
  </g>
  <g id="RTPK_g" class="node node_gene">
    <ellipse id="RTPK_g_shape" class="shape" cx="939.0" cy="175.0" rx="40.0" ry="15.0"/>
    <text  id="RTPK_g_text" x="939" y="178" text-anchor="middle">RTPK_g</text>
  </g>
  <g id="CTNNB1" class="node node_target">
    <ellipse id="CTNNB1_shape" class="shape" cx="1641.0" cy="591.0" rx="40.0" ry="15.0"/>
    <text  id="CTNNB1_text" x="1641" y="595" text-anchor="middle" font-weight="bold">CTNNB1</text>
  </g>
  <g id="MDM2" class="node">
    <ellipse id="MDM2_shape" class="shape" cx="934.0" cy="549.0" rx="40.0" ry="15.0"/>
    <text  id="MDM2_text" x="934" y="552" text-anchor="middle">MDM2</text>
  </g>
  <g id="SFRP1" class="node">
    <ellipse id="SFRP1_shape" class="shape" cx="1856.0" cy="246.0" rx="40.0" ry="15.0"/>
    <text  id="SFRP1_text" x="1856" y="249" text-anchor="middle">SFRP1</text>
  </g>
  <g id="NFKB_f" class="node">
    <ellipse id="NFKB_f_shape" class="shape" cx="607.0" cy="576.0" rx="40.0" ry="15.0"/>
    <text  id="NFKB_f_text" x="607" y="579" text-anchor="middle">NFKB_f</text>
  </g>
  <g id="MEK_f" class="node node_target">
    <ellipse id="MEK_f_shape" class="shape" cx="786.0" cy="474.0" rx="40.0" ry="15.0"/>
    <text  id="MEK_f_text" x="786" y="477" text-anchor="middle" font-weight="bold">MEK_f</text>
  </g>
  <g id="MMP_f" class="node">
    <ellipse id="MMP_f_shape" class="shape" cx="1637.0" cy="141.0" rx="40.0" ry="15.0"/>
    <text  id="MMP_f_text" x="1637" y="144" text-anchor="middle">MMP_f</text>
  </g>
  <g id="RHEB" class="node">
    <ellipse id="RHEB_shape" class="shape" cx="1134.0" cy="477.0" rx="40.0" ry="15.0"/>
    <text  id="RHEB_text" x="1134" y="480" text-anchor="middle">RHEB</text>
  </g>
  <g id="CYCS" class="node">
    <ellipse id="CYCS_shape" class="shape" cx="1045.0" cy="671.0" rx="40.0" ry="15.0"/>
    <text  id="CYCS_text" x="1045" y="674" text-anchor="middle">CYCS</text>
  </g>
  <g id="FZD_f" class="node">
    <ellipse id="FZD_f_shape" class="shape" cx="1730.0" cy="245.0" rx="40.0" ry="15.0"/>
    <text  id="FZD_f_text" x="1730" y="248" text-anchor="middle">FZD_f</text>
  </g>
  <g id="RAC_f" class="node">
    <ellipse id="RAC_f_shape" class="shape" cx="177.0" cy="82.0" rx="40.0" ry="15.0"/>
    <text  id="RAC_f_text" x="177" y="85" text-anchor="middle">RAC_f</text>
  </g>
  <g id="MAPK14" class="node node_target">
    <ellipse id="MAPK14_shape" class="shape" cx="431.0" cy="406.0" rx="40.0" ry="15.0"/>
    <text  id="MAPK14_text" x="431" y="411" text-anchor="middle" font-weight="bold">MAPK14</text>
  </g>
  <g id="GSK3_f" class="node node_target">
    <ellipse id="GSK3_f_shape" class="shape" cx="1433.0" cy="402.0" rx="40.0" ry="15.0"/>
    <text  id="GSK3_f_text" x="1433" y="405" text-anchor="middle" font-weight="bold">GSK3_f</text>
  </g>
  <g id="BAD" class="node">
    <ellipse id="BAD_shape" class="shape" cx="1304.0" cy="670.0" rx="40.0" ry="15.0"/>
    <text  id="BAD_text" x="1304" y="673" text-anchor="middle">BAD</text>
  </g>
  <g id="IRS1" class="node">
    <ellipse id="IRS1_shape" class="shape" cx="1141.0" cy="240.0" rx="40.0" ry="15.0"/>
    <text  id="IRS1_text" x="1141" y="243" text-anchor="middle">IRS1</text>
  </g>
  <g id="CASP3" class="node">
    <ellipse id="CASP3_shape" class="shape" cx="1048.0" cy="790.0" rx="40.0" ry="15.0"/>
    <text  id="CASP3_text" x="1048" y="793" text-anchor="middle">CASP3</text>
  </g>
  <g id="PTPN11" class="node">
    <ellipse id="PTPN11_shape" class="shape" cx="881.0" cy="273.0" rx="40.0" ry="15.0"/>
    <text  id="PTPN11_text" x="881" y="276" text-anchor="middle">PTPN11</text>
  </g>
  <g id="Antisurvival" class="node node_phenotypic_output">
    <rect id="Antisurvival_shape" class="shape" width="120" height="30" x="1096" y="829" rx="10" ry="10"/>
    <text  id="Antisurvival_text" x="1156" y="847" text-anchor="middle">Antisurvival</text>
  </g>
  <g id="MAP2K4" class="node">
    <ellipse id="MAP2K4_shape" class="shape" cx="83.0" cy="330.0" rx="40.0" ry="15.0"/>
    <text  id="MAP2K4_text" x="83" y="333" text-anchor="middle">MAP2K4</text>
  </g>
  <g id="MSK_f" class="node">
    <ellipse id="MSK_f_shape" class="shape" cx="546.0" cy="445.0" rx="40.0" ry="15.0"/>
    <text  id="MSK_f_text" x="546" y="448" text-anchor="middle">MSK_f</text>
  </g>
  <g id="PTEN_g" class="node node_gene">
    <ellipse id="PTEN_g_shape" class="shape" cx="1514.0" cy="313.0" rx="40.0" ry="15.0"/>
    <text  id="PTEN_g_text" x="1514" y="317" text-anchor="middle">PTEN_g</text>
  </g>
  <g id="FOXO_f" class="node">
    <ellipse id="FOXO_f_shape" class="shape" cx="1411.0" cy="701.0" rx="40.0" ry="15.0"/>
    <text  id="FOXO_f_text" x="1411" y="704" text-anchor="middle">FOXO_f</text>
  </g>
  <g id="Prosurvival" class="node node_phenotypic_output">
    <rect id="Prosurvival_shape" class="shape" width="120" height="30" x="1711" y="829" rx="10" ry="10"/>
    <text  id="Prosurvival_text" x="1771" y="847" text-anchor="middle">Prosurvival</text>
  </g>
  <g id="RTPK_f" class="node">
    <ellipse id="RTPK_f_shape" class="shape" cx="611.0" cy="126.0" rx="40.0" ry="15.0"/>
    <text  id="RTPK_f_text" x="611" y="131" text-anchor="middle">RTPK_f</text>
  </g>
  <g id="IKBKB" class="node">
    <ellipse id="IKBKB_shape" class="shape" cx="337.0" cy="575.0" rx="40.0" ry="15.0"/>
    <text  id="IKBKB_text" x="337" y="578" text-anchor="middle">IKBKB</text>
  </g>
  <g id="AKT1S1" class="node">
    <ellipse id="AKT1S1_shape" class="shape" cx="1480.0" cy="471.0" rx="40.0" ry="15.0"/>
    <text  id="AKT1S1_text" x="1480" y="475" text-anchor="middle">AKT1S1</text>
  </g>
  <g id="MAP3K5" class="node">
    <ellipse id="MAP3K5_shape" class="shape" cx="500.0" cy="357.0" rx="40.0" ry="15.0"/>
    <text  id="MAP3K5_text" x="500" y="360" text-anchor="middle">MAP3K5</text>
  </g>
  <g id="CFLAR" class="node">
    <ellipse id="CFLAR_shape" class="shape" cx="703.0" cy="758.0" rx="40.0" ry="15.0"/>
    <text  id="CFLAR_text" x="703" y="762" text-anchor="middle">CFLAR</text>
  </g>
  <g id="GRAP2" class="node">
    <ellipse id="GRAP2_shape" class="shape" cx="243.0" cy="383.0" rx="40.0" ry="15.0"/>
    <text  id="GRAP2_text" x="243" y="387" text-anchor="middle">GRAP2</text>
  </g>
  <g id="CK1_f" class="node">
    <ellipse id="CK1_f_shape" class="shape" cx="1723.0" cy="464.0" rx="40.0" ry="15.0"/>
    <text  id="CK1_f_text" x="1723" y="467" text-anchor="middle">CK1_f</text>
  </g>
  <g id="S6K_f" class="node">
    <ellipse id="S6K_f_shape" class="shape" cx="1043.0" cy="280.0" rx="40.0" ry="15.0"/>
    <text  id="S6K_f_text" x="1043" y="283" text-anchor="middle">S6K_f</text>
  </g>
  <g id="AKT_f" class="node node_target">
    <ellipse id="AKT_f_shape" class="shape" cx="1210.0" cy="566.0" rx="40.0" ry="15.0"/>
    <text  id="AKT_f_text" x="1210" y="570" text-anchor="middle" font-weight="bold">AKT_f</text>
  </g>
  <g id="MAP3K7" class="node node_target">
    <ellipse id="MAP3K7_shape" class="shape" cx="318.0" cy="208.0" rx="40.0" ry="15.0"/>
    <text  id="MAP3K7_text" x="318" y="212" text-anchor="middle" font-weight="bold">MAP3K7</text>
  </g>
  <g id="MAP3K11" class="node">
    <ellipse id="MAP3K11_shape" class="shape" cx="176.0" cy="251.0" rx="40.0" ry="15.0"/>
    <text  id="MAP3K11_text" x="176" y="254" text-anchor="middle">MAP3K11</text>
  </g>
  <g id="TSC_f" class="node">
    <ellipse id="TSC_f_shape" class="shape" cx="1266.0" cy="520.0" rx="40.0" ry="15.0"/>
    <text  id="TSC_f_text" x="1266" y="523" text-anchor="middle">TSC_f</text>
  </g>
  <g id="DUSP1" class="node">
    <ellipse id="DUSP1_shape" class="shape" cx="241.0" cy="640.0" rx="40.0" ry="15.0"/>
    <text  id="DUSP1_text" x="241" y="642" text-anchor="middle">DUSP1</text>
  </g>
  <g id="CASP9" class="node">
    <ellipse id="CASP9_shape" class="shape" cx="1048.0" cy="715.0" rx="40.0" ry="15.0"/>
    <text  id="CASP9_text" x="1048" y="718" text-anchor="middle">CASP9</text>
  </g>
  <g id="DKK_f" class="node">
    <ellipse id="DKK_f_shape" class="shape" cx="1541.0" cy="666.0" rx="40.0" ry="15.0"/>
    <text  id="DKK_f_text" x="1541" y="669" text-anchor="middle">DKK_f</text>
  </g>
  <g id="BCL2" class="node">
    <ellipse id="BCL2_shape" class="shape" cx="1151.0" cy="670.0" rx="40.0" ry="15.0"/>
    <text  id="BCL2_text" x="1151" y="673" text-anchor="middle">BCL2</text>
  </g>
  <g id="SOS1" class="node">
    <ellipse id="SOS1_shape" class="shape" cx="660.0" cy="323.0" rx="40.0" ry="15.0"/>
    <text  id="SOS1_text" x="660" y="326" text-anchor="middle">SOS1</text>
  </g>
  <g id="AXIN1" class="node">
    <ellipse id="AXIN1_shape" class="shape" cx="1748.0" cy="428.0" rx="40.0" ry="15.0"/>
    <text  id="AXIN1_text" x="1748" y="431" text-anchor="middle">AXIN1</text>
  </g>
  <g id="MAP3K4" class="node">
    <ellipse id="MAP3K4_shape" class="shape" cx="84.0" cy="183.0" rx="40.0" ry="15.0"/>
    <text  id="MAP3K4_text" x="84" y="186" text-anchor="middle">MAP3K4</text>
  </g>
  <g id="PIK3CA" class="node node_target">
    <ellipse id="PIK3CA_shape" class="shape" cx="1091.0" cy="355.0" rx="40.0" ry="15.0"/>
    <text  id="PIK3CA_text" x="1091" y="359" text-anchor="middle" font-weight="bold">PIK3CA</text>
  </g>
  <g id="GRB2" class="node">
    <ellipse id="GRB2_shape" class="shape" cx="661.0" cy="276.0" rx="40.0" ry="15.0"/>
    <text  id="GRB2_text" x="661" y="279" text-anchor="middle">GRB2</text>
  </g>
  <g id="RAF_f" class="node">
    <ellipse id="RAF_f_shape" class="shape" cx="896.0" cy="379.0" rx="40.0" ry="15.0"/>
    <text  id="RAF_f_text" x="896" y="382" text-anchor="middle">RAF_f</text>
  </g>
  <g id="SFRP1_g" class="node node_gene">
    <ellipse id="SFRP1_g_shape" class="shape" cx="1856.0" cy="572.0" rx="40.0" ry="15.0"/>
    <text  id="SFRP1_g_text" x="1856" y="575" text-anchor="middle">SFRP1_g</text>
  </g>
  <g id="CHUK" class="node">
    <ellipse id="CHUK_shape" class="shape" cx="1054.0" cy="591.0" rx="40.0" ry="15.0"/>
    <text  id="CHUK_text" x="1054" y="594" text-anchor="middle">CHUK</text>
  </g>
  <g id="PDPK1" class="node">
    <ellipse id="PDPK1_shape" class="shape" cx="1255.0" cy="426.0" rx="40.0" ry="15.0"/>
    <text  id="PDPK1_text" x="1255" y="429" text-anchor="middle">PDPK1</text>
  </g>
  <g id="MYC" class="node">
    <ellipse id="MYC_shape" class="shape" cx="1803.0" cy="697.0" rx="40.0" ry="15.0"/>
    <text  id="MYC_text" x="1803" y="700" text-anchor="middle">MYC</text>
  </g>
  <g id="DKK_g" class="node node_gene">
    <ellipse id="DKK_g_shape" class="shape" cx="1618.0" cy="696.0" rx="40.0" ry="15.0"/>
    <text  id="DKK_g_text" x="1618" y="699" text-anchor="middle">DKK_g</text>
  </g>
  <g id="mTORC1_c" class="node">
    <ellipse id="mTORC1_c_shape" class="shape" cx="1187.0" cy="337.0" rx="44.0" ry="18.0"/>
    <text  id="mTORC1_c_text" x="1187" y="340" text-anchor="middle">mTORC1_c</text>
  </g>
  <g id="BTRC" class="node">
    <ellipse id="BTRC_shape" class="shape" cx="1804.0" cy="505.0" rx="40.0" ry="15.0"/>
    <text  id="BTRC_text" x="1804" y="508" text-anchor="middle">BTRC</text>
  </g>
  <g id="MAP2K7" class="node">
    <ellipse id="MAP2K7_shape" class="shape" cx="202.0" cy="302.0" rx="40.0" ry="15.0"/>
    <text  id="MAP2K7_text" x="202" y="305" text-anchor="middle">MAP2K7</text>
  </g>
  <g id="EGR1" class="node">
    <ellipse id="EGR1_shape" class="shape" cx="1590.0" cy="537.0" rx="40.0" ry="15.0"/>
    <text  id="EGR1_text" x="1590" y="540" text-anchor="middle">EGR1</text>
  </g>
  <g id="TCF7_f" class="node">
    <ellipse id="TCF7_f_shape" class="shape" cx="1777.0" cy="624.0" rx="40.0" ry="15.0"/>
    <text  id="TCF7_f_text" x="1777" y="627" text-anchor="middle">TCF7_f</text>
  </g>
  <g id="MAP2K3" class="node">
    <ellipse id="MAP2K3_shape" class="shape" cx="500.0" cy="282.0" rx="40.0" ry="15.0"/>
    <text  id="MAP2K3_text" x="500" y="285" text-anchor="middle">MAP2K3</text>
  </g>
  <g id="JNK_f" class="node">
    <ellipse id="JNK_f_shape" class="shape" cx="83.0" cy="429.0" rx="40.0" ry="15.0"/>
    <text  id="JNK_f_text" x="83" y="432" text-anchor="middle">JNK_f</text>
  </g>
  <g id="PTEN" class="node">
    <ellipse id="PTEN_shape" class="shape" cx="1328.0" cy="312.0" rx="40.0" ry="15.0"/>
    <text  id="PTEN_text" x="1328" y="316" text-anchor="middle">PTEN</text>
  </g>
  <g id="DVL_f" class="node">
    <ellipse id="DVL_f_shape" class="shape" cx="1446.0" cy="79.0" rx="40.0" ry="15.0"/>
    <text  id="DVL_f_text" x="1446" y="82" text-anchor="middle">DVL_f</text>
  </g>
  <g id="CCND1" class="node">
    <ellipse id="CCND1_shape" class="shape" cx="1735.0" cy="763.0" rx="40.0" ry="15.0"/>
    <text  id="CCND1_text" x="1736" y="768" text-anchor="middle">CCND1</text>
  </g>
  <g id="SHC1" class="node">
    <ellipse id="SHC1_shape" class="shape" cx="662.0" cy="202.0" rx="40.0" ry="15.0"/>
    <text  id="SHC1_text" x="662" y="205" text-anchor="middle">SHC1</text>
  </g>
  <g id="LEF" class="node">
    <ellipse id="LEF_shape" class="shape" cx="1639.0" cy="321.0" rx="40.0" ry="15.0"/>
    <text  id="LEF_text" x="1639" y="324" text-anchor="middle">LEF</text>
  </g>
  <g id="NLK" class="node">
    <ellipse id="NLK_shape" class="shape" cx="1438.0" cy="632.0" rx="40.0" ry="15.0"/>
    <text  id="NLK_text" x="1438" y="635" text-anchor="middle">NLK</text>
  </g>
  <g id="DUSP6" class="node">
    <ellipse id="DUSP6_shape" class="shape" cx="1013.0" cy="377.0" rx="40.0" ry="15.0"/>
    <text  id="DUSP6_text" x="1013" y="380" text-anchor="middle">DUSP6</text>
  </g>
  <g id="mTORC2_c" class="node">
    <ellipse id="mTORC2_c_shape" class="shape" cx="1281.0" cy="285.0" rx="44.0" ry="17.0"/>
    <text  id="mTORC2_c_text" x="1281" y="288" text-anchor="middle">mTORC2_c</text>
  </g>
  <g id="GAB_f" class="node">
    <ellipse id="GAB_f_shape" class="shape" cx="769.0" cy="272.0" rx="40.0" ry="15.0"/>
    <text  id="GAB_f_text" x="769" y="275" text-anchor="middle">GAB_f</text>
  </g>
  <g id="LRP_f" class="node">
    <ellipse id="LRP_f_shape" class="shape" cx="1575.0" cy="433.0" rx="40.0" ry="15.0"/>
    <text  id="LRP_f_text" x="1575" y="436" text-anchor="middle">LRP_f</text>
  </g>
  <g id="KRAS" class="node">
    <ellipse id="KRAS_shape" class="shape" cx="882.0" cy="324.0" rx="40.0" ry="15.0"/>
    <text  id="KRAS_text" x="882" y="327" text-anchor="middle">KRAS</text>
  </g>
  <g id="MDM2_g" class="node node_gene">
    <ellipse id="MDM2_g_shape" class="shape" cx="802.0" cy="548.0" rx="40.0" ry="15.0"/>
    <text  id="MDM2_g_text" x="802" y="551" text-anchor="middle">MDM2_g</text>
  </g>
  <g id="TAB_f" class="node">
    <ellipse id="TAB_f_shape" class="shape" cx="379.0" cy="147.0" rx="40.0" ry="15.0"/>
    <text  id="TAB_f_text" x="379" y="152" text-anchor="middle">TAB_f</text>
  </g>
  <g id="ERK_f" class="node">
    <ellipse id="ERK_f_shape" class="shape" cx="993.0" cy="436.0" rx="40.0" ry="15.0"/>
    <text  id="ERK_f_text" x="993" y="439" text-anchor="middle">ERK_f</text>
  </g>
  <g id="BAX" class="node">
    <ellipse id="BAX_shape" class="shape" cx="936.0" cy="668.0" rx="40.0" ry="15.0"/>
    <text  id="BAX_text" x="936" y="671" text-anchor="middle">BAX</text>
  </g>
  <g id="TP53" class="node">
    <ellipse id="TP53_shape" class="shape" cx="935.0" cy="613.0" rx="40.0" ry="15.0"/>
    <text  id="TP53_text" x="935" y="616" text-anchor="middle">TP53</text>
  </g>
  <g id="CASP8" class="node">
    <ellipse id="CASP8_shape" class="shape" cx="896.0" cy="790.0" rx="40.0" ry="15.0"/>
    <text  id="CASP8_text" x="896" y="793" text-anchor="middle">CASP8</text>
  </g>
  <g id="ITCH" class="node">
    <ellipse id="ITCH_shape" class="shape" cx="357.0" cy="757.0" rx="40.0" ry="15.0"/>
    <text  id="ITCH_text" x="357" y="761" text-anchor="middle">ITCH</text>
  </g>
  <!-- Legend -->
  <g id="Protein" class="node">
    <ellipse id="protein_shape" class="shape" cx="83.0" cy="830.0" rx="45.0" ry="20.0"/>
    <text  id="protein_text" x="83" y="835" text-anchor="middle">Protein</text>
  </g>
  <g id="Gene" class="node node_gene">
    <ellipse id="gene_shape" class="shape" cx="213.0" cy="830.0" rx="45.0" ry="20.0"/>
    <text  id="gene_text" x="213" y="835" text-anchor="middle">Gene</text>
  </g>
  <g id="DrugTarget" class="node node_target">
    <ellipse id="target_shape" class="shape" cx="353.0" cy="830.0" rx="55.0" ry="20.0"/>
    <text  id="target_text" x="353" y="835" text-anchor="middle">Drug Target</text>
  </g>
  <g id="PhenotypicReadout" class="node node_phenotypic_output">                     
    <rect id="pheno_shape" class="shape" width="170" height="30" x="450" y="815" rx="10" ry="10"/>
    <text  id="pheno_text" x="536" y="835" text-anchor="middle">Phenotypic Readout</text>
  </g>
  <rect x="20" y="800" rx="10" ry="10" width="630" height="60" style="fill:none;stroke:black;stroke-width:5;opacity"/>

</svg>
